<mxfile host="65bd71144e" modified="2021-02-02T14:36:17.760Z" agent="5.0 (X11; Linux x86_64) AppleWebKit/537.36 (KHTML, like Gecko) Code/1.52.1 Chrome/83.0.4103.122 Electron/9.3.5 Safari/537.36" etag="d51ABa0W9w-ozn6xE2lf" version="13.10.0" type="embed">
    <diagram id="U_yS-JqjanbA2Suw0eFM" name="Page-1">
        <mxGraphModel dx="2462" dy="1131" grid="1" gridSize="10" guides="1" tooltips="1" connect="1" arrows="1" fold="1" page="1" pageScale="1" pageWidth="850" pageHeight="1100" math="0" shadow="0">
            <root>
                <mxCell id="0"/>
                <mxCell id="1" parent="0"/>
                <mxCell id="2" value="Machine" style="rounded=0;whiteSpace=wrap;html=1;fillColor=#d5e8d4;strokeColor=#82b366;" parent="1" vertex="1">
                    <mxGeometry x="80" y="420" width="70" height="30" as="geometry"/>
                </mxCell>
                <mxCell id="3" value="Firewall&lt;br&gt;&lt;i&gt;&lt;font style=&quot;font-size: 8px&quot;&gt;optional&lt;/font&gt;&lt;/i&gt;" style="rounded=0;whiteSpace=wrap;html=1;strokeColor=#82b366;fillColor=#EAFFE9;fontColor=#666666;" parent="1" vertex="1">
                    <mxGeometry x="190" y="420" width="70" height="30" as="geometry"/>
                </mxCell>
                <mxCell id="4" value="Shared VRF A" style="rounded=0;whiteSpace=wrap;html=1;fillColor=#d5e8d4;strokeColor=#82b366;" parent="1" vertex="1">
                    <mxGeometry x="120" y="320" width="110" height="30" as="geometry"/>
                </mxCell>
                <mxCell id="6" value="" style="endArrow=none;html=1;entryX=0.25;entryY=1;entryDx=0;entryDy=0;" parent="1" target="4" edge="1">
                    <mxGeometry width="50" height="50" relative="1" as="geometry">
                        <mxPoint x="120" y="420" as="sourcePoint"/>
                        <mxPoint x="170" y="370" as="targetPoint"/>
                    </mxGeometry>
                </mxCell>
                <mxCell id="7" value="" style="endArrow=none;html=1;entryX=0.75;entryY=1;entryDx=0;entryDy=0;exitX=0.5;exitY=0;exitDx=0;exitDy=0;" parent="1" source="3" target="4" edge="1">
                    <mxGeometry width="50" height="50" relative="1" as="geometry">
                        <mxPoint x="230" y="420" as="sourcePoint"/>
                        <mxPoint x="257.4999999999999" y="350" as="targetPoint"/>
                    </mxGeometry>
                </mxCell>
                <mxCell id="8" value="212.1.2.4/32" style="text;html=1;strokeColor=none;fillColor=none;align=center;verticalAlign=middle;whiteSpace=wrap;rounded=0;dashed=1;fontSize=10;" parent="1" vertex="1">
                    <mxGeometry x="95" y="450" width="40" height="20" as="geometry"/>
                </mxCell>
                <mxCell id="9" value="&lt;span style=&quot;color: rgb(0 , 0 , 0)&quot;&gt;212.1.2.3&lt;/span&gt;/32" style="text;html=1;strokeColor=none;fillColor=none;align=center;verticalAlign=middle;whiteSpace=wrap;rounded=0;dashed=1;fontSize=10;fontColor=#666666;" parent="1" vertex="1">
                    <mxGeometry x="240" y="410" width="40" height="10" as="geometry"/>
                </mxCell>
                <mxCell id="11" value="Machine" style="rounded=0;whiteSpace=wrap;html=1;fillColor=#dae8fc;strokeColor=#6c8ebf;" parent="1" vertex="1">
                    <mxGeometry x="704" y="290" width="70" height="30" as="geometry"/>
                </mxCell>
                <mxCell id="12" value="Firewall" style="rounded=0;whiteSpace=wrap;html=1;fillColor=#dae8fc;strokeColor=#6c8ebf;" parent="1" vertex="1">
                    <mxGeometry x="514" y="190" width="70" height="30" as="geometry"/>
                </mxCell>
                <mxCell id="13" value="Private VRF B" style="rounded=0;whiteSpace=wrap;html=1;fillColor=#dae8fc;strokeColor=#6c8ebf;" parent="1" vertex="1">
                    <mxGeometry x="684" y="190" width="110" height="30" as="geometry"/>
                </mxCell>
                <mxCell id="14" value="" style="endArrow=none;html=1;entryX=0.5;entryY=1;entryDx=0;entryDy=0;" parent="1" source="11" target="13" edge="1">
                    <mxGeometry width="50" height="50" relative="1" as="geometry">
                        <mxPoint x="684" y="290" as="sourcePoint"/>
                        <mxPoint x="734" y="240" as="targetPoint"/>
                    </mxGeometry>
                </mxCell>
                <mxCell id="15" value="" style="endArrow=none;html=1;entryX=0;entryY=0.5;entryDx=0;entryDy=0;exitX=1;exitY=0.5;exitDx=0;exitDy=0;" parent="1" source="12" target="13" edge="1">
                    <mxGeometry width="50" height="50" relative="1" as="geometry">
                        <mxPoint x="794" y="290" as="sourcePoint"/>
                        <mxPoint x="821.4999999999999" y="220" as="targetPoint"/>
                    </mxGeometry>
                </mxCell>
                <mxCell id="16" value="10.0.0.2/32" style="text;html=1;strokeColor=none;fillColor=none;align=center;verticalAlign=middle;whiteSpace=wrap;rounded=0;dashed=1;fontSize=10;" parent="1" vertex="1">
                    <mxGeometry x="719" y="320" width="40" height="20" as="geometry"/>
                </mxCell>
                <mxCell id="17" value="VRF B 10.0.0.1/32" style="text;html=1;strokeColor=none;fillColor=none;align=center;verticalAlign=middle;whiteSpace=wrap;rounded=0;dashed=1;fontSize=10;" parent="1" vertex="1">
                    <mxGeometry x="585" y="190" width="89" height="10" as="geometry"/>
                </mxCell>
                <mxCell id="19" value="" style="endArrow=none;html=1;exitX=1;exitY=0.5;exitDx=0;exitDy=0;entryX=0;entryY=0.5;entryDx=0;entryDy=0;entryPerimeter=0;" parent="1" source="4" target="12" edge="1">
                    <mxGeometry width="50" height="50" relative="1" as="geometry">
                        <mxPoint x="300" y="390" as="sourcePoint"/>
                        <mxPoint x="350" y="340" as="targetPoint"/>
                    </mxGeometry>
                </mxCell>
                <mxCell id="20" value="VRF A 212.1.2.1/32" style="text;html=1;strokeColor=none;fillColor=none;align=center;verticalAlign=middle;whiteSpace=wrap;rounded=0;dashed=1;fontSize=10;" parent="1" vertex="1">
                    <mxGeometry x="411" y="200" width="96" height="10" as="geometry"/>
                </mxCell>
                <mxCell id="21" value="Customer Internet&lt;br&gt;&lt;font style=&quot;font-size: 10px&quot;&gt;212.1.2.1/27&lt;/font&gt;" style="text;html=1;strokeColor=#82b366;fillColor=#d5e8d4;align=center;verticalAlign=middle;whiteSpace=wrap;rounded=0;" parent="1" vertex="1">
                    <mxGeometry x="102.5" y="270" width="145" height="30" as="geometry"/>
                </mxCell>
                <mxCell id="22" value="Private Network&lt;br&gt;10.0.0.0/24" style="text;html=1;strokeColor=#6c8ebf;fillColor=#dae8fc;align=center;verticalAlign=middle;whiteSpace=wrap;rounded=0;" parent="1" vertex="1">
                    <mxGeometry x="666.5" y="137" width="145" height="30" as="geometry"/>
                </mxCell>
                <mxCell id="23" value="" style="curved=1;endArrow=classic;html=1;" parent="1" edge="1">
                    <mxGeometry width="50" height="50" relative="1" as="geometry">
                        <mxPoint x="584" y="230" as="sourcePoint"/>
                        <mxPoint x="514" y="230" as="targetPoint"/>
                        <Array as="points">
                            <mxPoint x="554" y="270"/>
                        </Array>
                    </mxGeometry>
                </mxCell>
                <mxCell id="24" value="no NAT&lt;br&gt;&lt;br&gt;SNAT if nat=true in shared network&lt;br&gt;10.0.0.0/24 to 10.99.0.3" style="text;html=1;align=center;verticalAlign=middle;resizable=0;points=[];autosize=1;fontSize=10;" parent="1" vertex="1">
                    <mxGeometry x="465" y="230" width="170" height="50" as="geometry"/>
                </mxCell>
                <mxCell id="26" value="" style="endArrow=classic;startArrow=none;html=1;endFill=1;startFill=0;exitX=0;exitY=1;exitDx=0;exitDy=0;" parent="1" source="27" edge="1">
                    <mxGeometry width="50" height="50" relative="1" as="geometry">
                        <mxPoint x="530" y="158" as="sourcePoint"/>
                        <mxPoint x="600" y="158" as="targetPoint"/>
                    </mxGeometry>
                </mxCell>
                <mxCell id="27" value="&lt;span style=&quot;color: rgb(0 , 0 , 0) ; font-family: &amp;#34;helvetica&amp;#34; ; font-size: 7.2px ; font-style: normal ; font-weight: 400 ; letter-spacing: normal ; text-align: center ; text-indent: 0px ; text-transform: none ; word-spacing: 0px ; background-color: rgb(255 , 255 , 255) ; display: inline ; float: none&quot;&gt;import 212.1.2.0/27&lt;/span&gt;" style="text;html=1;strokeColor=none;fillColor=none;align=center;verticalAlign=middle;whiteSpace=wrap;rounded=0;" parent="1" vertex="1">
                    <mxGeometry x="490" y="137" width="100" height="20" as="geometry"/>
                </mxCell>
                <mxCell id="28" value="" style="endArrow=none;startArrow=classic;html=1;endFill=0;startFill=1;" parent="1" edge="1">
                    <mxGeometry width="50" height="50" relative="1" as="geometry">
                        <mxPoint x="490" y="178" as="sourcePoint"/>
                        <mxPoint x="600" y="178" as="targetPoint"/>
                    </mxGeometry>
                </mxCell>
                <mxCell id="29" value="&lt;span style=&quot;color: rgb(0 , 0 , 0) ; font-family: &amp;#34;helvetica&amp;#34; ; font-size: 7.2px ; font-style: normal ; font-weight: 400 ; letter-spacing: normal ; text-align: center ; text-indent: 0px ; text-transform: none ; word-spacing: 0px ; background-color: rgb(255 , 255 , 255) ; display: inline ; float: none&quot;&gt;import 10.0.0.0/24&lt;br&gt;&lt;/span&gt;" style="text;html=1;strokeColor=none;fillColor=none;align=center;verticalAlign=middle;whiteSpace=wrap;rounded=0;" parent="1" vertex="1">
                    <mxGeometry x="495" y="157" width="110" height="20" as="geometry"/>
                </mxCell>
                <mxCell id="32" value="Machine" style="rounded=0;whiteSpace=wrap;html=1;fillColor=#e1d5e7;strokeColor=#9673a6;" parent="1" vertex="1">
                    <mxGeometry x="709" y="580" width="70" height="30" as="geometry"/>
                </mxCell>
                <mxCell id="33" value="Firewall" style="rounded=0;whiteSpace=wrap;html=1;fillColor=#e1d5e7;strokeColor=#9673a6;" parent="1" vertex="1">
                    <mxGeometry x="519" y="480" width="70" height="30" as="geometry"/>
                </mxCell>
                <mxCell id="34" value="Private VRF C" style="rounded=0;whiteSpace=wrap;html=1;fillColor=#e1d5e7;strokeColor=#9673a6;" parent="1" vertex="1">
                    <mxGeometry x="689" y="480" width="110" height="30" as="geometry"/>
                </mxCell>
                <mxCell id="35" value="" style="endArrow=none;html=1;entryX=0.5;entryY=1;entryDx=0;entryDy=0;" parent="1" source="32" target="34" edge="1">
                    <mxGeometry width="50" height="50" relative="1" as="geometry">
                        <mxPoint x="689" y="580" as="sourcePoint"/>
                        <mxPoint x="739" y="530" as="targetPoint"/>
                    </mxGeometry>
                </mxCell>
                <mxCell id="36" value="" style="endArrow=none;html=1;entryX=0;entryY=0.5;entryDx=0;entryDy=0;exitX=1;exitY=0.5;exitDx=0;exitDy=0;" parent="1" source="33" target="34" edge="1">
                    <mxGeometry width="50" height="50" relative="1" as="geometry">
                        <mxPoint x="799" y="580" as="sourcePoint"/>
                        <mxPoint x="826.4999999999999" y="510" as="targetPoint"/>
                    </mxGeometry>
                </mxCell>
                <mxCell id="37" value="10.0.1.2/32" style="text;html=1;strokeColor=none;fillColor=none;align=center;verticalAlign=middle;whiteSpace=wrap;rounded=0;dashed=1;fontSize=10;" parent="1" vertex="1">
                    <mxGeometry x="724" y="610" width="40" height="20" as="geometry"/>
                </mxCell>
                <mxCell id="38" value="VRF C 10.0.1.1/32" style="text;html=1;strokeColor=none;fillColor=none;align=center;verticalAlign=middle;whiteSpace=wrap;rounded=0;dashed=1;fontSize=10;" parent="1" vertex="1">
                    <mxGeometry x="590" y="480" width="89" height="10" as="geometry"/>
                </mxCell>
                <mxCell id="39" value="Private Network&lt;br&gt;10.0.1.0/24" style="text;html=1;strokeColor=#9673a6;fillColor=#e1d5e7;align=center;verticalAlign=middle;whiteSpace=wrap;rounded=0;" parent="1" vertex="1">
                    <mxGeometry x="671.5" y="427" width="145" height="30" as="geometry"/>
                </mxCell>
                <mxCell id="40" value="" style="curved=1;endArrow=classic;html=1;" parent="1" edge="1">
                    <mxGeometry width="50" height="50" relative="1" as="geometry">
                        <mxPoint x="589.0000000000002" y="520" as="sourcePoint"/>
                        <mxPoint x="519" y="520" as="targetPoint"/>
                        <Array as="points">
                            <mxPoint x="559" y="560"/>
                        </Array>
                    </mxGeometry>
                </mxCell>
                <mxCell id="41" value="no NAT&lt;br&gt;&lt;br&gt;SNAT if nat=true in shared network&lt;br&gt;10.0.1.0/24 to 10.99.0.4" style="text;html=1;align=center;verticalAlign=middle;resizable=0;points=[];autosize=1;fontSize=10;" parent="1" vertex="1">
                    <mxGeometry x="470" y="520" width="170" height="50" as="geometry"/>
                </mxCell>
                <mxCell id="42" value="" style="endArrow=classic;startArrow=none;html=1;endFill=1;startFill=0;exitX=0;exitY=1;exitDx=0;exitDy=0;" parent="1" source="43" edge="1">
                    <mxGeometry width="50" height="50" relative="1" as="geometry">
                        <mxPoint x="535" y="448" as="sourcePoint"/>
                        <mxPoint x="605" y="447.9999999999999" as="targetPoint"/>
                    </mxGeometry>
                </mxCell>
                <mxCell id="43" value="&lt;span style=&quot;font-family: &amp;#34;helvetica&amp;#34; ; font-size: 7.2px ; background-color: rgb(255 , 255 , 255)&quot;&gt;import 212.1.2.0/27&lt;/span&gt;" style="text;html=1;strokeColor=none;fillColor=none;align=center;verticalAlign=middle;whiteSpace=wrap;rounded=0;" parent="1" vertex="1">
                    <mxGeometry x="495" y="427" width="100" height="20" as="geometry"/>
                </mxCell>
                <mxCell id="44" value="" style="endArrow=none;startArrow=classic;html=1;endFill=0;startFill=1;" parent="1" edge="1">
                    <mxGeometry width="50" height="50" relative="1" as="geometry">
                        <mxPoint x="495" y="467.9999999999999" as="sourcePoint"/>
                        <mxPoint x="605" y="467.9999999999999" as="targetPoint"/>
                    </mxGeometry>
                </mxCell>
                <mxCell id="45" value="&lt;span style=&quot;color: rgb(0 , 0 , 0) ; font-family: &amp;#34;helvetica&amp;#34; ; font-size: 7.2px ; font-style: normal ; font-weight: 400 ; letter-spacing: normal ; text-align: center ; text-indent: 0px ; text-transform: none ; word-spacing: 0px ; background-color: rgb(255 , 255 , 255) ; display: inline ; float: none&quot;&gt;import 10.0.1.0/24&lt;/span&gt;" style="text;html=1;strokeColor=none;fillColor=none;align=center;verticalAlign=middle;whiteSpace=wrap;rounded=0;" parent="1" vertex="1">
                    <mxGeometry x="500" y="447" width="110" height="20" as="geometry"/>
                </mxCell>
                <mxCell id="46" value="" style="endArrow=none;html=1;exitX=1;exitY=0.75;exitDx=0;exitDy=0;entryX=0;entryY=0.5;entryDx=0;entryDy=0;" parent="1" source="4" target="33" edge="1">
                    <mxGeometry width="50" height="50" relative="1" as="geometry">
                        <mxPoint x="240" y="345" as="sourcePoint"/>
                        <mxPoint x="524" y="215" as="targetPoint"/>
                    </mxGeometry>
                </mxCell>
                <mxCell id="47" value="VRF A 212.1.2.2/32" style="text;html=1;strokeColor=none;fillColor=none;align=center;verticalAlign=middle;whiteSpace=wrap;rounded=0;dashed=1;fontSize=10;" parent="1" vertex="1">
                    <mxGeometry x="418" y="490" width="96" height="10" as="geometry"/>
                </mxCell>
                <mxCell id="48" value="&lt;span style=&quot;color: rgb(0 , 0 , 0) ; font-family: &amp;#34;helvetica&amp;#34; ; font-style: normal ; font-weight: 400 ; letter-spacing: normal ; text-align: center ; text-indent: 0px ; text-transform: none ; word-spacing: 0px ; background-color: rgb(255 , 255 , 255) ; display: inline ; float: none ; font-size: 10px&quot;&gt;route to 10.0.0.0/24 via 212.1.2.1&lt;br&gt;route to 10.0.1.0/24 via 212.1.2.2&lt;br&gt;&lt;/span&gt;" style="text;html=1;strokeColor=none;fillColor=none;align=center;verticalAlign=middle;whiteSpace=wrap;rounded=0;" parent="1" vertex="1">
                    <mxGeometry x="30" y="470" width="170" height="50" as="geometry"/>
                </mxCell>
                <mxCell id="49" value="&lt;font style=&quot;font-size: 10px&quot;&gt;no-export in both directions if nat=true in shared-network&lt;/font&gt;" style="shape=callout;whiteSpace=wrap;html=1;perimeter=calloutPerimeter;" parent="1" vertex="1">
                    <mxGeometry x="495" y="57" width="120" height="80" as="geometry"/>
                </mxCell>
                <mxCell id="50" value="&lt;font style=&quot;font-size: 10px&quot;&gt;no-export in both directions if nat=true in shared-network&lt;/font&gt;" style="shape=callout;whiteSpace=wrap;html=1;perimeter=calloutPerimeter;" parent="1" vertex="1">
                    <mxGeometry x="506" y="350" width="120" height="80" as="geometry"/>
                </mxCell>
                <mxCell id="51" value="FI-TS Internet&lt;br&gt;&lt;font style=&quot;font-size: 10px&quot;&gt;212.34.89.0/20&lt;/font&gt;" style="text;html=1;strokeColor=#b85450;fillColor=#f8cecc;align=center;verticalAlign=middle;whiteSpace=wrap;rounded=0;" parent="1" vertex="1">
                    <mxGeometry x="170" y="590" width="145" height="30" as="geometry"/>
                </mxCell>
                <mxCell id="53" value="" style="endArrow=none;html=1;entryX=0.5;entryY=1;entryDx=0;entryDy=0;exitX=0.514;exitY=-0.1;exitDx=0;exitDy=0;exitPerimeter=0;" parent="1" source="51" target="3" edge="1">
                    <mxGeometry width="50" height="50" relative="1" as="geometry">
                        <mxPoint x="282.5" y="570" as="sourcePoint"/>
                        <mxPoint x="260" y="500" as="targetPoint"/>
                    </mxGeometry>
                </mxCell>
                <mxCell id="54" value="&lt;span style=&quot;color: rgb(0 , 0 , 0)&quot;&gt;212.34.89.42&lt;/span&gt;/32" style="text;html=1;strokeColor=none;fillColor=none;align=center;verticalAlign=middle;whiteSpace=wrap;rounded=0;dashed=1;fontSize=10;fontColor=#666666;" parent="1" vertex="1">
                    <mxGeometry x="247.5" y="452" width="40" height="10" as="geometry"/>
                </mxCell>
                <mxCell id="100" style="edgeStyle=orthogonalEdgeStyle;curved=1;rounded=0;orthogonalLoop=1;jettySize=auto;html=1;entryX=0.5;entryY=1;entryDx=0;entryDy=0;endArrow=none;endFill=0;" parent="1" source="56" target="71" edge="1">
                    <mxGeometry relative="1" as="geometry"/>
                </mxCell>
                <mxCell id="56" value="Firewall&lt;br&gt;" style="rounded=0;whiteSpace=wrap;html=1;strokeColor=#82b366;fillColor=#EAFFE9;fontColor=#666666;" parent="1" vertex="1">
                    <mxGeometry x="126.25" y="1153" width="70" height="30" as="geometry"/>
                </mxCell>
                <mxCell id="61" value="&lt;span style=&quot;color: rgb(0 , 0 , 0)&quot;&gt;212.1.2.1&lt;/span&gt;/32" style="text;html=1;strokeColor=none;fillColor=none;align=center;verticalAlign=middle;whiteSpace=wrap;rounded=0;dashed=1;fontSize=10;fontColor=#666666;" parent="1" vertex="1">
                    <mxGeometry x="220" y="1163" width="40" height="10" as="geometry"/>
                </mxCell>
                <mxCell id="62" value="Machine" style="rounded=0;whiteSpace=wrap;html=1;fillColor=#dae8fc;strokeColor=#6c8ebf;" parent="1" vertex="1">
                    <mxGeometry x="686.5" y="1123" width="70" height="30" as="geometry"/>
                </mxCell>
                <mxCell id="63" value="Firewall" style="rounded=0;whiteSpace=wrap;html=1;fillColor=#dae8fc;strokeColor=#6c8ebf;" parent="1" vertex="1">
                    <mxGeometry x="496.5" y="1023" width="70" height="30" as="geometry"/>
                </mxCell>
                <mxCell id="64" value="Private VRF B" style="rounded=0;whiteSpace=wrap;html=1;fillColor=#dae8fc;strokeColor=#6c8ebf;" parent="1" vertex="1">
                    <mxGeometry x="666.5" y="1023" width="110" height="30" as="geometry"/>
                </mxCell>
                <mxCell id="65" value="" style="endArrow=none;html=1;entryX=0.5;entryY=1;entryDx=0;entryDy=0;" parent="1" source="62" target="64" edge="1">
                    <mxGeometry width="50" height="50" relative="1" as="geometry">
                        <mxPoint x="666.5" y="1123" as="sourcePoint"/>
                        <mxPoint x="716.5" y="1073" as="targetPoint"/>
                    </mxGeometry>
                </mxCell>
                <mxCell id="66" value="" style="endArrow=none;html=1;entryX=0;entryY=0.5;entryDx=0;entryDy=0;exitX=1;exitY=0.5;exitDx=0;exitDy=0;" parent="1" source="63" target="64" edge="1">
                    <mxGeometry width="50" height="50" relative="1" as="geometry">
                        <mxPoint x="776.5" y="1123" as="sourcePoint"/>
                        <mxPoint x="803.9999999999999" y="1053" as="targetPoint"/>
                    </mxGeometry>
                </mxCell>
                <mxCell id="67" value="10.0.0.2/32&lt;br&gt;212.1.2.42/32" style="text;html=1;strokeColor=none;fillColor=none;align=center;verticalAlign=middle;whiteSpace=wrap;rounded=0;dashed=1;fontSize=10;" parent="1" vertex="1">
                    <mxGeometry x="701.5" y="1153" width="40" height="20" as="geometry"/>
                </mxCell>
                <mxCell id="68" value="VRF B 10.0.0.1/32" style="text;html=1;strokeColor=none;fillColor=none;align=center;verticalAlign=middle;whiteSpace=wrap;rounded=0;dashed=1;fontSize=10;" parent="1" vertex="1">
                    <mxGeometry x="567.5" y="1023" width="89" height="10" as="geometry"/>
                </mxCell>
                <mxCell id="69" value="" style="endArrow=none;html=1;exitX=1;exitY=0.25;exitDx=0;exitDy=0;entryX=0;entryY=0.5;entryDx=0;entryDy=0;entryPerimeter=0;" parent="1" source="56" target="63" edge="1">
                    <mxGeometry width="50" height="50" relative="1" as="geometry">
                        <mxPoint x="212.5" y="1168" as="sourcePoint"/>
                        <mxPoint x="332.5" y="1173" as="targetPoint"/>
                    </mxGeometry>
                </mxCell>
                <mxCell id="70" value="VRF A 212.1.2.3/32" style="text;html=1;strokeColor=none;fillColor=none;align=center;verticalAlign=middle;whiteSpace=wrap;rounded=0;dashed=1;fontSize=10;" parent="1" vertex="1">
                    <mxGeometry x="393.5" y="1033" width="96" height="10" as="geometry"/>
                </mxCell>
                <mxCell id="71" value="Customer Internet&lt;br&gt;&lt;font style=&quot;font-size: 10px&quot;&gt;212.1.2.1/27&lt;/font&gt;" style="text;html=1;strokeColor=#82b366;fillColor=#d5e8d4;align=center;verticalAlign=middle;whiteSpace=wrap;rounded=0;" parent="1" vertex="1">
                    <mxGeometry x="80" y="1043" width="162.5" height="30" as="geometry"/>
                </mxCell>
                <mxCell id="72" value="Private Network&lt;br&gt;10.0.0.0/24" style="text;html=1;strokeColor=#6c8ebf;fillColor=#dae8fc;align=center;verticalAlign=middle;whiteSpace=wrap;rounded=0;" parent="1" vertex="1">
                    <mxGeometry x="649" y="970" width="145" height="30" as="geometry"/>
                </mxCell>
                <mxCell id="73" value="" style="curved=1;endArrow=classic;html=1;" parent="1" edge="1">
                    <mxGeometry width="50" height="50" relative="1" as="geometry">
                        <mxPoint x="566.5" y="1063" as="sourcePoint"/>
                        <mxPoint x="496.5" y="1063" as="targetPoint"/>
                        <Array as="points">
                            <mxPoint x="536.5" y="1103"/>
                        </Array>
                    </mxGeometry>
                </mxCell>
                <mxCell id="74" value="no NAT&lt;br&gt;&lt;br&gt;SNAT if nat=true in shared network&lt;br&gt;10.0.0.0/24 to 10.99.0.3" style="text;html=1;align=center;verticalAlign=middle;resizable=0;points=[];autosize=1;fontSize=10;" parent="1" vertex="1">
                    <mxGeometry x="447.5" y="1063" width="170" height="50" as="geometry"/>
                </mxCell>
                <mxCell id="75" value="" style="endArrow=classic;startArrow=none;html=1;endFill=1;startFill=0;exitX=0;exitY=1;exitDx=0;exitDy=0;" parent="1" source="76" edge="1">
                    <mxGeometry width="50" height="50" relative="1" as="geometry">
                        <mxPoint x="512.5" y="991" as="sourcePoint"/>
                        <mxPoint x="582.5" y="991" as="targetPoint"/>
                    </mxGeometry>
                </mxCell>
                <mxCell id="76" value="&lt;span style=&quot;color: rgb(0 , 0 , 0) ; font-family: &amp;#34;helvetica&amp;#34; ; font-size: 7.2px ; font-style: normal ; font-weight: 400 ; letter-spacing: normal ; text-align: center ; text-indent: 0px ; text-transform: none ; word-spacing: 0px ; background-color: rgb(255 , 255 , 255) ; display: inline ; float: none&quot;&gt;import 212.1.2.0/27&lt;/span&gt;" style="text;html=1;strokeColor=none;fillColor=none;align=center;verticalAlign=middle;whiteSpace=wrap;rounded=0;" parent="1" vertex="1">
                    <mxGeometry x="472.5" y="970" width="100" height="20" as="geometry"/>
                </mxCell>
                <mxCell id="77" value="" style="endArrow=none;startArrow=classic;html=1;endFill=0;startFill=1;" parent="1" edge="1">
                    <mxGeometry width="50" height="50" relative="1" as="geometry">
                        <mxPoint x="472.5" y="1011" as="sourcePoint"/>
                        <mxPoint x="582.5" y="1011" as="targetPoint"/>
                    </mxGeometry>
                </mxCell>
                <mxCell id="78" value="&lt;span style=&quot;color: rgb(0 , 0 , 0) ; font-family: &amp;#34;helvetica&amp;#34; ; font-size: 7.2px ; font-style: normal ; font-weight: 400 ; letter-spacing: normal ; text-align: center ; text-indent: 0px ; text-transform: none ; word-spacing: 0px ; background-color: rgb(255 , 255 , 255) ; display: inline ; float: none&quot;&gt;import 10.0.0.0/24&lt;br&gt;&lt;/span&gt;" style="text;html=1;strokeColor=none;fillColor=none;align=center;verticalAlign=middle;whiteSpace=wrap;rounded=0;" parent="1" vertex="1">
                    <mxGeometry x="477.5" y="990" width="110" height="20" as="geometry"/>
                </mxCell>
                <mxCell id="79" value="Machine" style="rounded=0;whiteSpace=wrap;html=1;fillColor=#e1d5e7;strokeColor=#9673a6;" parent="1" vertex="1">
                    <mxGeometry x="691.5" y="1413" width="70" height="30" as="geometry"/>
                </mxCell>
                <mxCell id="80" value="Firewall" style="rounded=0;whiteSpace=wrap;html=1;fillColor=#e1d5e7;strokeColor=#9673a6;" parent="1" vertex="1">
                    <mxGeometry x="501.5" y="1313" width="70" height="30" as="geometry"/>
                </mxCell>
                <mxCell id="81" value="Private VRF C" style="rounded=0;whiteSpace=wrap;html=1;fillColor=#e1d5e7;strokeColor=#9673a6;" parent="1" vertex="1">
                    <mxGeometry x="671.5" y="1313" width="110" height="30" as="geometry"/>
                </mxCell>
                <mxCell id="82" value="" style="endArrow=none;html=1;entryX=0.5;entryY=1;entryDx=0;entryDy=0;" parent="1" source="79" target="81" edge="1">
                    <mxGeometry width="50" height="50" relative="1" as="geometry">
                        <mxPoint x="671.5" y="1413" as="sourcePoint"/>
                        <mxPoint x="721.5" y="1363" as="targetPoint"/>
                    </mxGeometry>
                </mxCell>
                <mxCell id="83" value="" style="endArrow=none;html=1;entryX=0;entryY=0.5;entryDx=0;entryDy=0;exitX=1;exitY=0.5;exitDx=0;exitDy=0;" parent="1" source="80" target="81" edge="1">
                    <mxGeometry width="50" height="50" relative="1" as="geometry">
                        <mxPoint x="781.5" y="1413" as="sourcePoint"/>
                        <mxPoint x="808.9999999999999" y="1343" as="targetPoint"/>
                    </mxGeometry>
                </mxCell>
                <mxCell id="84" value="10.0.1.2/32" style="text;html=1;strokeColor=none;fillColor=none;align=center;verticalAlign=middle;whiteSpace=wrap;rounded=0;dashed=1;fontSize=10;" parent="1" vertex="1">
                    <mxGeometry x="706.5" y="1443" width="40" height="20" as="geometry"/>
                </mxCell>
                <mxCell id="85" value="VRF C 10.0.1.1/32" style="text;html=1;strokeColor=none;fillColor=none;align=center;verticalAlign=middle;whiteSpace=wrap;rounded=0;dashed=1;fontSize=10;" parent="1" vertex="1">
                    <mxGeometry x="572.5" y="1313" width="89" height="10" as="geometry"/>
                </mxCell>
                <mxCell id="86" value="Private Network&lt;br&gt;10.0.1.0/24" style="text;html=1;strokeColor=#9673a6;fillColor=#e1d5e7;align=center;verticalAlign=middle;whiteSpace=wrap;rounded=0;" parent="1" vertex="1">
                    <mxGeometry x="654" y="1260" width="145" height="30" as="geometry"/>
                </mxCell>
                <mxCell id="87" value="" style="curved=1;endArrow=classic;html=1;" parent="1" edge="1">
                    <mxGeometry width="50" height="50" relative="1" as="geometry">
                        <mxPoint x="571.5000000000002" y="1353" as="sourcePoint"/>
                        <mxPoint x="501.5" y="1353" as="targetPoint"/>
                        <Array as="points">
                            <mxPoint x="541.5" y="1393"/>
                        </Array>
                    </mxGeometry>
                </mxCell>
                <mxCell id="88" value="no NAT&lt;br&gt;&lt;br&gt;SNAT if nat=true in shared network&lt;br&gt;10.0.1.0/24 to 10.99.0.4" style="text;html=1;align=center;verticalAlign=middle;resizable=0;points=[];autosize=1;fontSize=10;" parent="1" vertex="1">
                    <mxGeometry x="452.5" y="1353" width="170" height="50" as="geometry"/>
                </mxCell>
                <mxCell id="89" value="" style="endArrow=classic;startArrow=none;html=1;endFill=1;startFill=0;exitX=0;exitY=1;exitDx=0;exitDy=0;" parent="1" source="90" edge="1">
                    <mxGeometry width="50" height="50" relative="1" as="geometry">
                        <mxPoint x="517.5" y="1281" as="sourcePoint"/>
                        <mxPoint x="587.5" y="1281" as="targetPoint"/>
                    </mxGeometry>
                </mxCell>
                <mxCell id="90" value="&lt;span style=&quot;font-family: &amp;#34;helvetica&amp;#34; ; font-size: 7.2px ; background-color: rgb(255 , 255 , 255)&quot;&gt;import 212.1.2.0/27&lt;/span&gt;" style="text;html=1;strokeColor=none;fillColor=none;align=center;verticalAlign=middle;whiteSpace=wrap;rounded=0;" parent="1" vertex="1">
                    <mxGeometry x="477.5" y="1260" width="100" height="20" as="geometry"/>
                </mxCell>
                <mxCell id="91" value="" style="endArrow=none;startArrow=classic;html=1;endFill=0;startFill=1;" parent="1" edge="1">
                    <mxGeometry width="50" height="50" relative="1" as="geometry">
                        <mxPoint x="477.5" y="1301" as="sourcePoint"/>
                        <mxPoint x="587.5" y="1301" as="targetPoint"/>
                    </mxGeometry>
                </mxCell>
                <mxCell id="92" value="&lt;span style=&quot;color: rgb(0 , 0 , 0) ; font-family: &amp;#34;helvetica&amp;#34; ; font-size: 7.2px ; font-style: normal ; font-weight: 400 ; letter-spacing: normal ; text-align: center ; text-indent: 0px ; text-transform: none ; word-spacing: 0px ; background-color: rgb(255 , 255 , 255) ; display: inline ; float: none&quot;&gt;import 10.0.1.0/24&lt;/span&gt;" style="text;html=1;strokeColor=none;fillColor=none;align=center;verticalAlign=middle;whiteSpace=wrap;rounded=0;" parent="1" vertex="1">
                    <mxGeometry x="482.5" y="1280" width="110" height="20" as="geometry"/>
                </mxCell>
                <mxCell id="93" value="" style="endArrow=none;html=1;exitX=1;exitY=0.75;exitDx=0;exitDy=0;entryX=0;entryY=0.5;entryDx=0;entryDy=0;" parent="1" source="56" target="80" edge="1">
                    <mxGeometry width="50" height="50" relative="1" as="geometry">
                        <mxPoint x="212.5" y="1175.5" as="sourcePoint"/>
                        <mxPoint x="506.5" y="1048" as="targetPoint"/>
                    </mxGeometry>
                </mxCell>
                <mxCell id="94" value="VRF A 212.1.2.2/32" style="text;html=1;strokeColor=none;fillColor=none;align=center;verticalAlign=middle;whiteSpace=wrap;rounded=0;dashed=1;fontSize=10;" parent="1" vertex="1">
                    <mxGeometry x="400.5" y="1323" width="96" height="10" as="geometry"/>
                </mxCell>
                <mxCell id="95" value="&lt;font style=&quot;font-size: 10px&quot;&gt;no-export in both directions if nat=true in shared-network&lt;/font&gt;" style="shape=callout;whiteSpace=wrap;html=1;perimeter=calloutPerimeter;" parent="1" vertex="1">
                    <mxGeometry x="477.5" y="890" width="120" height="80" as="geometry"/>
                </mxCell>
                <mxCell id="96" value="&lt;font style=&quot;font-size: 10px&quot;&gt;no-export in both directions if nat=true in shared-network&lt;/font&gt;" style="shape=callout;whiteSpace=wrap;html=1;perimeter=calloutPerimeter;" parent="1" vertex="1">
                    <mxGeometry x="488.5" y="1183" width="120" height="80" as="geometry"/>
                </mxCell>
                <mxCell id="103" value="Internet&lt;br&gt;&lt;font style=&quot;font-size: 10px&quot;&gt;212.34.89.0/24&lt;/font&gt;" style="text;html=1;strokeColor=#b85450;fillColor=#f8cecc;align=center;verticalAlign=middle;whiteSpace=wrap;rounded=0;" parent="1" vertex="1">
                    <mxGeometry x="-65" y="1043" width="145" height="30" as="geometry"/>
                </mxCell>
                <mxCell id="104" value="" style="edgeStyle=orthogonalEdgeStyle;curved=1;rounded=0;orthogonalLoop=1;jettySize=auto;html=1;endArrow=none;endFill=0;" parent="1" source="105" target="103" edge="1">
                    <mxGeometry relative="1" as="geometry"/>
                </mxCell>
                <mxCell id="105" value="Internet Router" style="rounded=0;whiteSpace=wrap;html=1;strokeColor=#82b366;fillColor=#EAFFE9;fontColor=#666666;" parent="1" vertex="1">
                    <mxGeometry x="-27.5" y="970" width="70" height="30" as="geometry"/>
                </mxCell>
                <mxCell id="109" style="edgeStyle=orthogonalEdgeStyle;curved=1;rounded=0;orthogonalLoop=1;jettySize=auto;html=1;endArrow=none;endFill=0;" parent="1" source="106" target="103" edge="1">
                    <mxGeometry relative="1" as="geometry"/>
                </mxCell>
                <mxCell id="106" value="Seed" style="rounded=0;whiteSpace=wrap;html=1;fillColor=#e1d5e7;strokeColor=#9673a6;" parent="1" vertex="1">
                    <mxGeometry x="-27.5" y="1153" width="70" height="30" as="geometry"/>
                </mxCell>
                <mxCell id="110" value="User Defined Routes&lt;br&gt;0/0 via 212.1.2.1&lt;br&gt;212.1.2.0/27 via 212.1.2.1" style="text;html=1;strokeColor=none;fillColor=none;align=center;verticalAlign=middle;whiteSpace=wrap;rounded=0;" parent="1" vertex="1">
                    <mxGeometry x="305" y="955" width="160" height="60" as="geometry"/>
                </mxCell>
                <mxCell id="112" value="User Defined Routes&lt;br&gt;212.1.2.0/27 via 212.1.2.1" style="text;html=1;strokeColor=none;fillColor=none;align=center;verticalAlign=middle;whiteSpace=wrap;rounded=0;" parent="1" vertex="1">
                    <mxGeometry x="81.25" y="1183" width="160" height="60" as="geometry"/>
                </mxCell>
            </root>
        </mxGraphModel>
    </diagram>
</mxfile>